<svg width="128" height="128" viewBox="0 0 128 128" xmlns="http://www.w3.org/2000/svg">
  <!-- Background circle -->
  <circle cx="64" cy="64" r="60" fill="#4A90E2" opacity="0.9"/>
  
  <!-- Heart symbol (💙) -->
  <path d="M 64 90 
           C 64 90, 40 70, 40 55
           C 40 45, 48 40, 54 40
           C 60 40, 64 45, 64 45
           C 64 45, 68 40, 74 40
           C 80 40, 88 45, 88 55
           C 88 70, 64 90, 64 90 Z" 
        fill="white" 
        opacity="0.95"/>
  
  <!-- Infinity symbol (⟨∞⟩) -->
  <path d="M 45 55 
           Q 40 50, 45 45
           Q 50 40, 55 45
           Q 60 50, 64 50
           Q 68 50, 73 45
           Q 78 40, 83 45
           Q 88 50, 83 55
           Q 78 60, 73 55
           Q 68 50, 64 50
           Q 60 50, 55 55
           Q 50 60, 45 55 Z"
        fill="white"
        opacity="0.7"
        transform="translate(0, 10) scale(0.8)"/>
  
  <!-- Decorative stars -->
  <circle cx="30" cy="30" r="3" fill="white" opacity="0.8"/>
  <circle cx="98" cy="30" r="3" fill="white" opacity="0.8"/>
  <circle cx="30" cy="98" r="3" fill="white" opacity="0.8"/>
  <circle cx="98" cy="98" r="3" fill="white" opacity="0.8"/>
</svg>
